<svg xmlns="http://www.w3.org/2000/svg" viewBox="0 0 1600 900" role="img" aria-labelledby="title desc">
  <title id="title">Hero Medellin</title>
  <desc id="desc">Night city skyline with roadway lights for the rental home hero background.</desc>
  <defs>
    <linearGradient id="sky" x1="0" y1="0" x2="0" y2="1">
      <stop offset="0%" stop-color="#080b16"/>
      <stop offset="45%" stop-color="#13213d"/>
      <stop offset="100%" stop-color="#1b2d4e"/>
    </linearGradient>
    <linearGradient id="road" x1="0" y1="0" x2="1" y2="0">
      <stop offset="0%" stop-color="#ff8f59"/>
      <stop offset="50%" stop-color="#ffc14a"/>
      <stop offset="100%" stop-color="#ff5a4f"/>
    </linearGradient>
    <radialGradient id="glow" cx="50%" cy="18%" r="55%">
      <stop offset="0%" stop-color="#ff7458" stop-opacity=".65"/>
      <stop offset="100%" stop-color="#ff7458" stop-opacity="0"/>
    </radialGradient>
    <filter id="blur" x="-20%" y="-20%" width="140%" height="140%">
      <feGaussianBlur stdDeviation="12"/>
    </filter>
  </defs>
  <rect width="1600" height="900" fill="url(#sky)"/>
  <rect width="1600" height="900" fill="url(#glow)"/>
  <g opacity=".18">
    <circle cx="170" cy="130" r="2" fill="#fff"/>
    <circle cx="260" cy="210" r="2" fill="#fff"/>
    <circle cx="540" cy="120" r="2" fill="#fff"/>
    <circle cx="710" cy="180" r="2" fill="#fff"/>
    <circle cx="980" cy="90" r="2" fill="#fff"/>
    <circle cx="1110" cy="210" r="2" fill="#fff"/>
    <circle cx="1370" cy="150" r="2" fill="#fff"/>
  </g>
  <path d="M0 530C210 470 330 510 460 470C590 430 700 330 820 350C950 370 1040 480 1160 500C1300 525 1440 470 1600 430V900H0Z" fill="#0f172a"/>
  <g fill="#101b32">
    <rect x="90" y="370" width="90" height="180"/>
    <rect x="200" y="330" width="70" height="220"/>
    <rect x="290" y="290" width="120" height="260"/>
    <rect x="430" y="350" width="85" height="200"/>
    <rect x="545" y="270" width="110" height="280"/>
    <rect x="690" y="315" width="100" height="235"/>
    <rect x="840" y="250" width="140" height="300"/>
    <rect x="1010" y="330" width="80" height="220"/>
    <rect x="1120" y="295" width="135" height="255"/>
    <rect x="1280" y="350" width="90" height="200"/>
  </g>
  <g fill="#ffd77a">
    <rect x="112" y="400" width="9" height="9"/>
    <rect x="145" y="420" width="9" height="9"/>
    <rect x="220" y="360" width="8" height="8"/>
    <rect x="240" y="390" width="8" height="8"/>
    <rect x="314" y="320" width="10" height="10"/>
    <rect x="350" y="360" width="10" height="10"/>
    <rect x="370" y="400" width="10" height="10"/>
    <rect x="568" y="300" width="10" height="10"/>
    <rect x="598" y="340" width="10" height="10"/>
    <rect x="865" y="285" width="12" height="12"/>
    <rect x="908" y="330" width="12" height="12"/>
    <rect x="945" y="370" width="12" height="12"/>
    <rect x="1150" y="330" width="10" height="10"/>
    <rect x="1190" y="370" width="10" height="10"/>
  </g>
  <path d="M270 900C470 700 610 650 800 645C1020 640 1180 705 1370 900Z" fill="#162338"/>
  <path d="M560 900C665 770 735 720 815 720C900 720 980 770 1090 900Z" fill="#1e293b"/>
  <path d="M740 900L794 595H846L902 900Z" fill="#111827"/>
  <path d="M795 598C818 592 830 592 845 598L860 900H780Z" fill="#1f2937"/>
  <path d="M0 900V790C190 765 320 760 470 776C650 796 770 846 905 850C1080 856 1285 780 1600 760V900Z" fill="#090f1e"/>
  <path d="M0 900V820C260 805 500 820 760 835C1030 850 1270 842 1600 800V900Z" fill="#111827"/>
  <path d="M0 900V850C210 845 390 850 630 860C920 873 1235 875 1600 840V900Z" fill="#0a1222"/>
  <path d="M170 900C360 852 575 822 795 826C1030 830 1270 860 1460 900Z" fill="none" stroke="url(#road)" stroke-width="16" stroke-linecap="round"/>
  <path d="M260 900C440 860 610 845 785 846C970 847 1170 864 1345 900" fill="none" stroke="#ffe4a3" stroke-opacity=".32" stroke-width="4" stroke-dasharray="8 18" stroke-linecap="round"/>
  <ellipse cx="805" cy="840" rx="250" ry="30" fill="#ff8f59" fill-opacity=".26" filter="url(#blur)"/>
</svg>
